<svg xmlns="http://www.w3.org/2000/svg" xmlns:xlink="http://www.w3.org/1999/xlink" width="670" zoomAndPan="magnify" viewBox="0 0 502.5 284.999983" height="380" preserveAspectRatio="xMidYMid meet" version="1.0"><defs><g/><clipPath id="42a70c8847"><path d="M 0 0.140625 L 502 0.140625 L 502 284.855469 L 0 284.855469 Z M 0 0.140625 " clip-rule="nonzero"/></clipPath><clipPath id="153e1923a9"><path d="M 69 0.140625 L 467 0.140625 L 467 258 L 69 258 Z M 69 0.140625 " clip-rule="nonzero"/></clipPath><clipPath id="7ce30c7cfe"><path d="M 138.226562 82.402344 L 246 82.402344 L 246 164.902344 L 138.226562 164.902344 Z M 138.226562 82.402344 " clip-rule="nonzero"/></clipPath><clipPath id="0dde1d5c65"><path d="M 0 0.140625 L 239 0.140625 L 239 281 L 0 281 Z M 0 0.140625 " clip-rule="nonzero"/></clipPath></defs><g clip-path="url(#42a70c8847)"><path fill="#ffffff" d="M 0 0.140625 L 502.5 0.140625 L 502.5 292.640625 L 0 292.640625 Z M 0 0.140625 " fill-opacity="1" fill-rule="nonzero"/><path fill="#ffffff" d="M 0 0.140625 L 502.5 0.140625 L 502.5 285.140625 L 0 285.140625 Z M 0 0.140625 " fill-opacity="1" fill-rule="nonzero"/><path fill="#ffffff" d="M 0 0.140625 L 502.5 0.140625 L 502.5 285.140625 L 0 285.140625 Z M 0 0.140625 " fill-opacity="1" fill-rule="nonzero"/></g><g clip-path="url(#153e1923a9)"><g fill="#000000" fill-opacity="1"><g transform="translate(132.509321, 289.975127)"><g><path d="M 247.496094 -294.996094 C 195.496094 -304.496094 138 -294.496094 87.5 -278.996094 C 81 -276.996094 69.5 -275.996094 64.5 -270.996094 C 59.5 -266.496094 62 -256.496094 65.5 -250.496094 C 70.5 -242.996094 74.5 -246.496094 78.5 -249.996094 C 103 -268.996094 204.496094 -287.496094 258.496094 -272.996094 C 281.496094 -266.996094 298.996094 -251.996094 299.496094 -238.496094 C 299.996094 -226.496094 281.996094 -192.5 265.496094 -174 C 241.996094 -147.5 194.996094 -114 145 -93.5 C 131 -88 104.5 -78 102.5 -78 C 102 -78 102.5 -80.5 104 -84 C 108 -92 108 -101 112.5 -109 C 116 -116.5 134.5 -144.5 138 -148 C 150 -161.5 219.996094 -167.5 237.496094 -162.5 C 246.496094 -160 235.496094 -175 219.996094 -178.5 C 214.996094 -180.5 209.996094 -181 204.996094 -181.5 C 161 -182.5 150.5 -163 189 -208.496094 C 208.496094 -231.996094 225.496094 -248.996094 225.996094 -250.996094 C 226.496094 -253.996094 225.496094 -253.996094 230.996094 -260.496094 C 236.496094 -266.996094 236.496094 -266.996094 231.996094 -270.996094 C 227.996094 -275.496094 221.996094 -275.496094 215.996094 -269.996094 C 210.496094 -265.996094 159 -207.996094 143.5 -189 C 132.5 -175.5 127 -167.5 119.5 -165 C -63 -109.5 -1.5 -32 73.5 -49.5 C 82.5 -51.5 135.5 -68 158.5 -81 C 171 -85.5 209.496094 -110 214.996094 -110.5 C 219.996094 -110.5 231.996094 -119.5 230.496094 -122 C 229.996094 -123 230.496094 -123.5 231.996094 -122.5 C 233.496094 -122 234.496094 -122.5 233.996094 -123 C 232.496094 -125.5 260.996094 -152 236.496094 -131.5 C 212.996094 -111 177.5 -95 162 -86.5 C 139.5 -78.5 59.5 -49 53 -57 C 49 -61.5 86 -66 95 -70 C 110.5 -76.5 129 -80 129 -81.5 C 129 -83 164.5 -94.5 164.5 -97 C 164.5 -97.5 165 -98 166.5 -98.5 C 173.5 -98.5 227.996094 -132 241.996094 -144.5 C 278.996094 -179 257.996094 -157.5 260.496094 -155.5 C 260.996094 -155 267.496094 -163 267.996094 -164 C 268.996094 -165.5 269.996094 -168.5 271.496094 -169.5 C 275.496094 -173.5 271.996094 -167.5 274.496094 -167 C 275.996094 -167 277.496094 -171 279.996094 -172 C 283.496094 -173 282.996094 -171 286.496094 -177 C 287.996094 -180 290.996094 -182.5 294.496094 -183.5 C 293.996094 -182 293.996094 -181 293.496094 -180 C 292.996094 -179 292.496094 -178.5 292.496094 -178 C 292.496094 -178 291.996094 -177.5 291.996094 -177.5 L 292.996094 -177.5 C 293.496094 -177.5 294.996094 -178.5 296.496094 -180.5 C 296.496094 -180.5 296.496094 -181 296.996094 -181 C 309.996094 -198.996094 333.996094 -278.496094 247.496094 -294.996094 Z M 294.996094 -262.496094 C 288.496094 -270.496094 277.496094 -275.496094 251.996094 -282.496094 C 240.496094 -285.496094 232.996094 -286.496094 209.996094 -287.496094 C 187.5 -287.996094 187 -290.496094 209.496094 -290.996094 C 255.996094 -292.996094 180.5 -294.496094 183 -294.496094 C 188 -294.496094 210.996094 -296.496094 230.996094 -293.996094 C 230.996094 -293.996094 258.996094 -289.996094 253.496094 -288.996094 C 249.996094 -288.996094 276.996094 -279.996094 284.496094 -274.496094 C 298.496094 -264.996094 298.496094 -258.496094 294.996094 -262.496094 Z M 230.996094 -290.496094 C 230.996094 -290.496094 234.996094 -289.996094 237.496094 -290.496094 C 240.996094 -291.996094 226.496094 -290.996094 230.996094 -290.496094 Z M 244.496094 -289.996094 C 242.496094 -289.996094 242.496094 -289.496094 243.496094 -289.496094 C 246.496094 -288.496094 248.496094 -290.496094 244.496094 -289.996094 Z M 182 -178.5 C 191.5 -179 187.5 -177.5 178 -178 C 175.5 -178 177.5 -178.5 182 -178.5 Z M 168 -171.5 C 186 -180 208.496094 -176.5 217.496094 -177 C 226.496094 -175 231.996094 -172.5 222.496094 -173.5 C 211.496094 -174.5 205.496094 -175.5 204.496094 -172.5 C 202.496094 -167.5 160 -168 168 -171.5 Z M 285.496094 -170 C 282.496094 -168 284.996094 -165.5 287.496094 -168.5 C 289.496094 -171 288.496094 -172 285.496094 -170 Z M 137.5 -165.5 C 136.5 -163.5 135.5 -162.5 135 -163 C 133.5 -164.5 141.5 -173 137.5 -165.5 Z M 230.996094 -168 C 232.496094 -168 233.496094 -167.5 232.996094 -167 C 231.996094 -166 226.496094 -167.5 230.996094 -168 Z M 280.996094 -164 C 279.996094 -164.5 277.496094 -164 275.996094 -162.5 C 271.996094 -159.5 258.996094 -144.5 255.996094 -144.5 C 252.996094 -144 258.496094 -149 256.496094 -149 C 254.996094 -149 247.996094 -141 248.996094 -140 C 251.496094 -137.5 273.496094 -153 271.996094 -155.5 C 270.496094 -157.5 277.496094 -156.5 276.996094 -159.5 C 276.996094 -163 283.496094 -162 280.996094 -164 Z M 15 -109.5 C 16 -112 29 -122.5 39 -128.5 C 60 -141 67.5 -142.5 80 -148.5 C 80 -148.5 115 -164 116.5 -160 C 118 -156.5 106 -153.5 80.5 -144 C 24 -122.5 13 -104.5 15 -109.5 Z M 100 -110 C 102.5 -116.5 124 -155 124.5 -145 C 124.5 -143.5 120 -140.5 120 -138 C 120 -137 119 -135.5 118 -135 C 115 -134 111.5 -123 109.5 -121.5 C 109 -121 107.5 -118.5 106 -116 C 103.5 -110 98.5 -105 100 -110 Z M 85 -78.5 C 86 -77.5 87 -78 91 -78 C 101 -77.5 78 -67 51 -67 C 29.5 -66.5 0 -71 11.5 -89 C 23 -109 98.5 -143 104 -139 C 106.5 -137.5 75.5 -83.5 85 -78.5 Z M 246.496094 -133.5 C 240.996094 -128.5 240.996094 -127 245.996094 -129 C 249.496094 -130.5 245.496094 -133 247.996094 -133 C 253.496094 -133 257.496094 -144.5 246.496094 -133.5 Z M 117.5 -124.5 C 113 -119.5 115 -118.5 113 -118.5 C 111 -118.5 119 -131.5 120 -129.5 C 120 -129 119 -126.5 117.5 -124.5 Z M 107 -107 C 103.5 -103.5 106 -112 108 -110 C 108.5 -109.5 108 -108.5 107 -107 Z M 141.5 -77.5 C 143 -78.5 146.5 -79 149.5 -79 C 156 -79.5 155 -79.5 142 -73.5 C 134 -69.5 128 -68 119 -67 C 98 -64.5 135 -73 141.5 -77.5 Z M 44.5 -59.5 C 33 -59 46 -54 22.5 -60.5 C 16.5 -62 14 -64 14 -66.5 C 14 -68 17.5 -67.5 29.5 -64 C 32.5 -63.5 38 -62.5 41 -62.5 C 46 -62.5 53.5 -59.5 44.5 -59.5 Z M 44 -58 C 45.5 -58 46.5 -57.5 46.5 -56.5 C 46.5 -54 38 -57.5 44 -58 Z M 44 -58 "/></g></g></g></g><g clip-path="url(#7ce30c7cfe)"><path fill="#000000" d="M 232.386719 82.816406 C 227.171875 82.460938 221.511719 84.945312 217.003906 87.339844 C 212.40625 89.734375 208.074219 93.015625 204.539062 96.917969 C 199.410156 102.324219 194.8125 109.773438 193.398438 117.492188 C 188.269531 112.96875 182.875 108.886719 176.6875 106.050781 C 167.050781 101.617188 155.820312 100.285156 145.917969 104.808594 C 143.707031 105.785156 141.410156 107.203125 139.996094 109.242188 C 138.316406 111.636719 138.226562 114.476562 138.667969 117.3125 C 139.375 122.546875 141.941406 127.335938 145.125 131.503906 C 151.222656 139.570312 160.332031 145.515625 169.082031 150.390625 C 177.484375 155.089844 186.414062 158.726562 195.875 160.234375 C 196.136719 161.566406 196.933594 162.804688 197.996094 163.425781 C 200.292969 164.847656 202.679688 163.871094 204.183594 161.917969 C 212.054688 152.074219 219.921875 142.234375 227.878906 132.300781 C 234.332031 124.230469 242.554688 115.71875 244.941406 105.339844 C 246.976562 95.941406 243.527344 83.527344 232.386719 82.816406 Z M 171.914062 113.941406 C 168.109375 112.789062 164.222656 111.816406 160.242188 111.015625 C 164.308594 111.195312 168.375 112.257812 172 113.855469 C 172 113.855469 172 113.941406 171.914062 113.941406 Z M 230.53125 91.949219 C 232.652344 91.683594 234.066406 92.304688 234.953125 93.546875 C 232.210938 96.03125 229.558594 98.601562 226.996094 101.261719 C 226.554688 100.550781 225.933594 100.019531 225.226562 99.664062 C 224.164062 96.917969 220.1875 95.496094 217.800781 97.890625 C 214.527344 101.085938 211.523438 104.453125 208.691406 108.089844 C 208.25 107.914062 207.808594 107.824219 207.367188 107.734375 C 208.074219 106.761719 208.78125 105.875 209.488281 104.988281 C 214.617188 98.777344 222.484375 93.015625 230.53125 91.949219 Z M 157.148438 131.148438 C 154.496094 128.753906 152.019531 126.09375 150.25 122.988281 C 151.84375 124.941406 153.964844 126.714844 156.261719 128.308594 C 156.617188 128.839844 157.058594 129.285156 157.679688 129.640625 C 159.359375 130.617188 161.039062 131.503906 162.71875 132.390625 C 163.425781 132.832031 164.042969 133.1875 164.664062 133.628906 C 166.960938 135.136719 169.261719 136.734375 171.558594 138.242188 C 171.027344 138.953125 170.675781 139.839844 170.5 140.726562 C 165.722656 137.976562 161.214844 134.785156 157.148438 131.148438 Z M 200.734375 151.632812 C 199.054688 151.457031 197.289062 151.1875 195.609375 150.921875 C 196.226562 150.390625 196.757812 149.683594 197.023438 148.882812 C 198.878906 149.238281 200.734375 149.414062 202.59375 149.238281 C 201.972656 150.035156 201.355469 150.835938 200.734375 151.632812 Z M 219.480469 128.222656 C 217.003906 131.324219 214.527344 134.429688 212.054688 137.53125 C 218.859375 128.132812 225.933594 119 233.273438 110.042969 C 229.648438 116.605469 223.988281 122.457031 219.480469 128.222656 Z M 219.480469 128.222656 " fill-opacity="1" fill-rule="nonzero"/></g><g clip-path="url(#0dde1d5c65)"><g fill="#000000" fill-opacity="1"><g transform="translate(-10.55549, 322.764769)"><g><path d="M 248.496094 -301.996094 C 246.996094 -304.996094 244.996094 -308.496094 242.496094 -310.496094 C 235.496094 -316.996094 228.496094 -308.496094 218.496094 -298.996094 C 218.496094 -299.496094 214.496094 -309.996094 197.996094 -313.996094 C 135.5 -328.496094 -3.5 -157.5 30 -65.5 C 32.5 -58.5 37 -51.5 43.5 -48.5 C 57 -42 71.5 -49 81.5 -58 C 107 -79.5 149 -116.5 165 -146 C 165.5 -146.5 166 -147.5 166 -148 C 166 -148.5 166 -149 165.5 -149 L 166 -151 C 167 -152.5 165 -160 163.5 -159 C 159.5 -163 163 -155 126 -118 C 112.5 -105 131.5 -119.5 96.5 -90.5 C 66.5 -65.5 69.5 -70.5 60 -65.5 C 53 -62 47.5 -64.5 44.5 -71.5 C 36 -90.5 45 -116 51.5 -135.5 C 53.5 -142 55.5 -150 59 -156 C 60.5 -158 61 -160.5 61 -161.5 C 60.5 -163.5 67 -167.5 67 -171.5 C 67 -173 67.5 -174.5 68 -174.5 C 70 -174.5 75.5 -183.5 77 -189.5 C 81 -201.996094 104.5 -230.496094 106 -233.496094 C 115 -247.996094 145.5 -279.496094 168.5 -292.496094 C 174.5 -295.496094 193.996094 -308.996094 202.496094 -298.996094 C 204.496094 -296.496094 207.996094 -287.496094 203.996094 -283.496094 C 203.496094 -282.996094 165.5 -245.496094 154.5 -221.496094 C 150 -211.996094 146 -194.496094 157 -187.5 C 161 -185.5 159.5 -199.996094 172.5 -219.996094 C 187 -242.996094 229.496094 -284.496094 244.996094 -293.996094 C 248.496094 -295.996094 249.496094 -297.496094 248.496094 -301.996094 Z M 153 -286.996094 C 151.5 -287.496094 150 -285.496094 140.5 -276.996094 C 128.5 -266.496094 133.5 -265.496094 129.5 -264.496094 C 126.5 -263.996094 120.5 -254.996094 116.5 -251.996094 C 112 -249.496094 111 -242.996094 105.5 -238.496094 C 101 -233.996094 103.5 -232.496094 101 -231.996094 C 98 -231.496094 92.5 -218.496094 90 -217.996094 C 87.5 -217.496094 88.5 -213.496094 86.5 -212.996094 C 84.5 -212.496094 65.5 -180 66 -178 C 66.5 -176.5 60.5 -173.5 59.5 -167 C 58.5 -160.5 55.5 -162.5 56 -160.5 C 56.5 -158.5 46 -135.5 44 -130 C 41.5 -124.5 42.5 -125 38 -103.5 C 33.5 -83 32 -96.5 42.5 -132.5 C 46.5 -147 53.5 -158.5 53 -161.5 C 52 -164 57 -164.5 57.5 -168.5 C 58 -176 64.5 -188 82 -214.496094 C 99.5 -241.496094 106 -242.496094 102.5 -243.996094 C 97.5 -245.496094 107 -244.496094 110 -250.496094 C 111.5 -253.496094 111.5 -253.496094 109.5 -251.996094 C 106 -249.496094 107 -251.496094 113.5 -258.496094 C 130 -276.996094 133 -279.996094 136.5 -279.496094 C 138.5 -279.496094 139 -279.996094 137.5 -280.496094 C 135.5 -280.996094 136.5 -281.996094 140.5 -285.496094 C 146.5 -290.496094 148.5 -290.996094 148 -288.996094 C 147 -286.996094 149 -287.496094 152 -290.996094 C 161.5 -300.496094 155 -285.996094 153 -286.996094 Z M 220.496094 -286.496094 C 219.996094 -286.996094 224.996094 -290.996094 225.996094 -290.496094 C 227.496094 -289.496094 220.996094 -283.996094 220.496094 -286.496094 Z M 126 -269.496094 C 124.5 -268.996094 119.5 -261.996094 121 -262.496094 C 123 -262.996094 127.5 -269.996094 126 -269.496094 Z M 185 -242.996094 C 181.5 -238.496094 176.5 -234.996094 172.5 -230.996094 C 169 -227.496094 164.5 -219.996094 162.5 -219.496094 C 152.5 -216.996094 184 -249.996094 189.5 -255.996094 C 203.996094 -273.496094 198.996094 -258.996094 185 -242.996094 Z M 113 -255.496094 C 113.5 -254.496094 115 -255.496094 117 -257.996094 C 121.5 -263.496094 112.5 -256.496094 113 -255.496094 Z M 101 -85 L 126 -106 C 128 -106.5 130 -115.5 161 -145.5 C 155 -131.5 134 -115.5 131.5 -109 C 130 -105 118.5 -95 116.5 -93.5 C 115 -92 114.5 -90.5 113 -89.5 C 110 -87.5 108.5 -88 106.5 -85 C 104 -81 95.5 -75 93 -74.5 C 85 -74 100 -83.5 101 -85 Z M 34 -90.5 C 33.5 -92 36 -92.5 36 -92 C 36.5 -91.5 34.5 -88.5 34 -90.5 Z M 34 -90.5 "/></g></g></g></g></svg>