<svg xmlns="http://www.w3.org/2000/svg" xmlns:xlink="http://www.w3.org/1999/xlink" width="150" zoomAndPan="magnify" viewBox="0 0 112.5 112.499997" height="150" preserveAspectRatio="xMidYMid meet" version="1.0"><defs><g/><clipPath id="8c73ce6da7"><path d="M 0 14 L 112.003906 14 L 112.003906 96 L 0 96 Z M 0 14 " clip-rule="nonzero"/></clipPath><clipPath id="e71e98cbf5"><path d="M 31.628906 35.46875 L 63 35.46875 L 63 59.46875 L 31.628906 59.46875 Z M 31.628906 35.46875 " clip-rule="nonzero"/></clipPath></defs><g clip-path="url(#8c73ce6da7)"><g fill="#737373" fill-opacity="1"><g transform="translate(18.186752, 104.922498)"><g><path d="M 73.71875 -87.867188 C 58.230469 -90.695312 41.105469 -87.71875 26.0625 -83.101562 C 24.125 -82.503906 20.699219 -82.207031 19.210938 -80.71875 C 17.722656 -79.378906 18.46875 -76.398438 19.507812 -74.613281 C 21 -72.378906 22.191406 -73.421875 23.382812 -74.464844 C 30.679688 -80.121094 60.910156 -85.632812 76.996094 -81.3125 C 83.847656 -79.527344 89.058594 -75.058594 89.207031 -71.039062 C 89.355469 -67.464844 83.996094 -57.335938 79.082031 -51.828125 C 72.082031 -43.933594 58.082031 -33.957031 43.1875 -27.847656 C 39.019531 -26.210938 31.125 -23.234375 30.53125 -23.234375 C 30.382812 -23.234375 30.53125 -23.976562 30.976562 -25.019531 C 32.167969 -27.402344 32.167969 -30.082031 33.507812 -32.464844 C 34.550781 -34.699219 40.0625 -43.039062 41.105469 -44.082031 C 44.679688 -48.105469 65.527344 -49.890625 70.742188 -48.402344 C 73.421875 -47.65625 70.144531 -52.125 65.527344 -53.167969 C 64.039062 -53.761719 62.550781 -53.910156 61.058594 -54.0625 C 47.953125 -54.359375 44.828125 -48.550781 56.292969 -62.101562 C 62.101562 -69.101562 67.167969 -74.164062 67.316406 -74.761719 C 67.464844 -75.65625 67.167969 -75.65625 68.804688 -77.589844 C 70.441406 -79.527344 70.441406 -79.527344 69.101562 -80.71875 C 67.910156 -82.058594 66.125 -82.058594 64.335938 -80.421875 C 62.699219 -79.230469 47.359375 -61.953125 42.742188 -56.292969 C 39.464844 -52.273438 37.828125 -49.890625 35.59375 -49.144531 C -18.765625 -32.613281 -0.445312 -9.53125 21.890625 -14.742188 C 24.574219 -15.339844 40.359375 -20.253906 47.210938 -24.125 C 50.933594 -25.464844 62.402344 -32.765625 64.039062 -32.914062 C 65.527344 -32.914062 69.101562 -35.59375 68.65625 -36.339844 C 68.507812 -36.636719 68.65625 -36.785156 69.101562 -36.488281 C 69.550781 -36.339844 69.847656 -36.488281 69.699219 -36.636719 C 69.25 -37.378906 77.738281 -45.273438 70.441406 -39.167969 C 63.441406 -33.0625 52.871094 -28.296875 48.253906 -25.765625 C 41.550781 -23.382812 17.722656 -14.59375 15.785156 -16.976562 C 14.59375 -18.316406 25.617188 -19.660156 28.296875 -20.851562 C 32.914062 -22.785156 38.421875 -23.828125 38.421875 -24.273438 C 38.421875 -24.722656 48.996094 -28.148438 48.996094 -28.890625 C 48.996094 -29.039062 49.144531 -29.191406 49.59375 -29.339844 C 51.679688 -29.339844 67.910156 -39.316406 72.082031 -43.039062 C 83.101562 -53.316406 76.847656 -46.914062 77.589844 -46.316406 C 77.738281 -46.167969 79.675781 -48.550781 79.824219 -48.847656 C 80.121094 -49.296875 80.421875 -50.1875 80.867188 -50.488281 C 82.058594 -51.679688 81.015625 -49.890625 81.761719 -49.742188 C 82.207031 -49.742188 82.65625 -50.933594 83.398438 -51.230469 C 84.441406 -51.527344 84.292969 -50.933594 85.335938 -52.71875 C 85.78125 -53.613281 86.675781 -54.359375 87.71875 -54.65625 C 87.570312 -54.210938 87.570312 -53.910156 87.421875 -53.613281 C 87.273438 -53.316406 87.121094 -53.167969 87.121094 -53.019531 C 87.121094 -53.019531 86.972656 -52.871094 86.972656 -52.871094 L 87.273438 -52.871094 C 87.421875 -52.871094 87.867188 -53.167969 88.3125 -53.761719 C 88.3125 -53.761719 88.3125 -53.910156 88.464844 -53.910156 C 92.335938 -59.273438 99.484375 -82.953125 73.71875 -87.867188 Z M 87.867188 -78.1875 C 85.929688 -80.570312 82.65625 -82.058594 75.058594 -84.144531 C 71.632812 -85.039062 69.398438 -85.335938 62.550781 -85.632812 C 55.847656 -85.78125 55.699219 -86.527344 62.402344 -86.675781 C 76.25 -87.273438 53.761719 -87.71875 54.507812 -87.71875 C 55.996094 -87.71875 62.847656 -88.3125 68.804688 -87.570312 C 68.804688 -87.570312 77.144531 -86.378906 75.507812 -86.082031 C 74.464844 -86.082031 82.503906 -83.398438 84.738281 -81.761719 C 88.910156 -78.929688 88.910156 -76.996094 87.867188 -78.1875 Z M 68.804688 -86.527344 C 68.804688 -86.527344 69.996094 -86.378906 70.742188 -86.527344 C 71.78125 -86.972656 67.464844 -86.675781 68.804688 -86.527344 Z M 72.824219 -86.378906 C 72.230469 -86.378906 72.230469 -86.230469 72.527344 -86.230469 C 73.421875 -85.929688 74.015625 -86.527344 72.824219 -86.378906 Z M 54.210938 -53.167969 C 57.039062 -53.316406 55.847656 -52.871094 53.019531 -53.019531 C 52.273438 -53.019531 52.871094 -53.167969 54.210938 -53.167969 Z M 50.039062 -51.082031 C 55.402344 -53.613281 62.101562 -52.570312 64.785156 -52.71875 C 67.464844 -52.125 69.101562 -51.378906 66.273438 -51.679688 C 62.996094 -51.976562 61.210938 -52.273438 60.910156 -51.378906 C 60.316406 -49.890625 47.65625 -50.039062 50.039062 -51.082031 Z M 85.039062 -50.636719 C 84.144531 -50.039062 84.890625 -49.296875 85.632812 -50.1875 C 86.230469 -50.933594 85.929688 -51.230469 85.039062 -50.636719 Z M 40.953125 -49.296875 C 40.65625 -48.699219 40.359375 -48.402344 40.210938 -48.550781 C 39.761719 -48.996094 42.144531 -51.527344 40.953125 -49.296875 Z M 68.804688 -50.039062 C 69.25 -50.039062 69.550781 -49.890625 69.398438 -49.742188 C 69.101562 -49.445312 67.464844 -49.890625 68.804688 -50.039062 Z M 83.695312 -48.847656 C 83.398438 -48.996094 82.65625 -48.847656 82.207031 -48.402344 C 81.015625 -47.507812 77.144531 -43.039062 76.25 -43.039062 C 75.355469 -42.890625 76.996094 -44.378906 76.398438 -44.378906 C 75.953125 -44.378906 73.867188 -41.996094 74.164062 -41.699219 C 74.910156 -40.953125 81.464844 -45.570312 81.015625 -46.316406 C 80.570312 -46.914062 82.65625 -46.613281 82.503906 -47.507812 C 82.503906 -48.550781 84.441406 -48.253906 83.695312 -48.847656 Z M 4.46875 -32.613281 C 4.765625 -33.359375 8.636719 -36.488281 11.617188 -38.273438 C 17.871094 -41.996094 20.105469 -42.445312 23.828125 -44.230469 C 23.828125 -44.230469 34.253906 -48.847656 34.699219 -47.65625 C 35.148438 -46.613281 31.574219 -45.722656 23.976562 -42.890625 C 7.148438 -36.488281 3.871094 -31.125 4.46875 -32.613281 Z M 29.785156 -32.765625 C 30.53125 -34.699219 36.933594 -46.167969 37.082031 -43.1875 C 37.082031 -42.742188 35.742188 -41.847656 35.742188 -41.105469 C 35.742188 -40.804688 35.445312 -40.359375 35.148438 -40.210938 C 34.253906 -39.914062 33.210938 -36.636719 32.613281 -36.1875 C 32.464844 -36.039062 32.019531 -35.296875 31.574219 -34.550781 C 30.828125 -32.765625 29.339844 -31.273438 29.785156 -32.765625 Z M 25.316406 -23.382812 C 25.617188 -23.082031 25.914062 -23.234375 27.105469 -23.234375 C 30.082031 -23.082031 23.234375 -19.957031 15.191406 -19.957031 C 8.785156 -19.808594 0 -21.148438 3.425781 -26.507812 C 6.851562 -32.464844 29.339844 -42.59375 30.976562 -41.402344 C 31.722656 -40.953125 22.488281 -24.871094 25.316406 -23.382812 Z M 73.421875 -39.761719 C 71.78125 -38.273438 71.78125 -37.828125 73.273438 -38.421875 C 74.316406 -38.871094 73.125 -39.613281 73.867188 -39.613281 C 75.507812 -39.613281 76.699219 -43.039062 73.421875 -39.761719 Z M 34.996094 -37.082031 C 33.65625 -35.59375 34.253906 -35.296875 33.65625 -35.296875 C 33.0625 -35.296875 35.445312 -39.167969 35.742188 -38.570312 C 35.742188 -38.421875 35.445312 -37.679688 34.996094 -37.082031 Z M 31.871094 -31.871094 C 30.828125 -30.828125 31.574219 -33.359375 32.167969 -32.765625 C 32.316406 -32.613281 32.167969 -32.316406 31.871094 -31.871094 Z M 42.144531 -23.082031 C 42.59375 -23.382812 43.636719 -23.53125 44.53125 -23.53125 C 46.464844 -23.679688 46.167969 -23.679688 42.296875 -21.890625 C 39.914062 -20.699219 38.125 -20.253906 35.445312 -19.957031 C 29.191406 -19.210938 40.210938 -21.742188 42.144531 -23.082031 Z M 13.253906 -17.722656 C 9.828125 -17.574219 13.703125 -16.085938 6.703125 -18.019531 C 4.914062 -18.46875 4.171875 -19.0625 4.171875 -19.808594 C 4.171875 -20.253906 5.210938 -20.105469 8.785156 -19.0625 C 9.679688 -18.914062 11.320312 -18.617188 12.210938 -18.617188 C 13.703125 -18.617188 15.933594 -17.722656 13.253906 -17.722656 Z M 13.105469 -17.277344 C 13.550781 -17.277344 13.851562 -17.125 13.851562 -16.828125 C 13.851562 -16.085938 11.320312 -17.125 13.105469 -17.277344 Z M 13.105469 -17.277344 "/></g></g></g></g><g clip-path="url(#e71e98cbf5)"><path fill="#ff3131" d="M 58.90625 35.589844 C 57.394531 35.488281 55.753906 36.210938 54.449219 36.90625 C 53.117188 37.601562 51.863281 38.558594 50.835938 39.691406 C 49.351562 41.265625 48.019531 43.433594 47.609375 45.675781 C 46.125 44.359375 44.5625 43.175781 42.769531 42.347656 C 39.980469 41.058594 36.726562 40.671875 33.859375 41.988281 C 33.21875 42.273438 32.550781 42.683594 32.140625 43.277344 C 31.65625 43.972656 31.628906 44.800781 31.757812 45.625 C 31.964844 47.148438 32.707031 48.539062 33.628906 49.75 C 35.394531 52.097656 38.03125 53.828125 40.566406 55.246094 C 43 56.613281 45.585938 57.667969 48.328125 58.109375 C 48.40625 58.496094 48.636719 58.855469 48.941406 59.035156 C 49.609375 59.449219 50.300781 59.164062 50.734375 58.597656 C 53.015625 55.734375 55.292969 52.871094 57.597656 49.984375 C 59.46875 47.636719 61.851562 45.160156 62.542969 42.144531 C 63.128906 39.410156 62.132812 35.796875 58.90625 35.589844 Z M 41.386719 44.644531 C 40.285156 44.308594 39.160156 44.027344 38.007812 43.792969 C 39.183594 43.84375 40.363281 44.15625 41.414062 44.617188 C 41.414062 44.617188 41.414062 44.644531 41.386719 44.644531 Z M 58.367188 38.25 C 58.980469 38.171875 59.390625 38.351562 59.648438 38.710938 C 58.851562 39.433594 58.085938 40.183594 57.34375 40.957031 C 57.214844 40.75 57.035156 40.59375 56.832031 40.492188 C 56.523438 39.691406 55.371094 39.28125 54.679688 39.976562 C 53.730469 40.90625 52.859375 41.886719 52.042969 42.941406 C 51.914062 42.890625 51.785156 42.863281 51.65625 42.839844 C 51.863281 42.554688 52.066406 42.296875 52.273438 42.039062 C 53.757812 40.234375 56.035156 38.558594 58.367188 38.25 Z M 37.109375 49.648438 C 36.34375 48.953125 35.625 48.179688 35.113281 47.277344 C 35.574219 47.84375 36.1875 48.359375 36.855469 48.824219 C 36.957031 48.976562 37.085938 49.105469 37.265625 49.210938 C 37.75 49.492188 38.238281 49.75 38.722656 50.007812 C 38.929688 50.136719 39.109375 50.242188 39.289062 50.371094 C 39.953125 50.808594 40.621094 51.273438 41.285156 51.710938 C 41.132812 51.917969 41.027344 52.175781 40.976562 52.433594 C 39.59375 51.632812 38.289062 50.707031 37.109375 49.648438 Z M 49.734375 55.605469 C 49.25 55.554688 48.738281 55.476562 48.25 55.398438 C 48.429688 55.246094 48.582031 55.039062 48.660156 54.808594 C 49.199219 54.910156 49.734375 54.960938 50.273438 54.910156 C 50.09375 55.140625 49.914062 55.375 49.734375 55.605469 Z M 55.164062 48.796875 C 54.449219 49.699219 53.730469 50.601562 53.015625 51.503906 C 54.984375 48.769531 57.035156 46.113281 59.160156 43.511719 C 58.109375 45.417969 56.472656 47.121094 55.164062 48.796875 Z M 55.164062 48.796875 " fill-opacity="1" fill-rule="nonzero"/></g><g fill="#737373" fill-opacity="1"><g transform="translate(-5.555553, 110.922493)"><g><path d="M 81.96875 -99.613281 C 81.472656 -100.605469 80.8125 -101.757812 79.988281 -102.417969 C 77.679688 -104.5625 75.371094 -101.757812 72.070312 -98.625 C 72.070312 -98.789062 70.753906 -102.253906 65.308594 -103.574219 C 44.695312 -108.355469 -1.15625 -51.953125 9.894531 -21.605469 C 10.71875 -19.296875 12.203125 -16.988281 14.347656 -15.996094 C 18.800781 -13.855469 23.585938 -16.164062 26.882812 -19.132812 C 35.292969 -26.222656 49.148438 -38.425781 54.425781 -48.15625 C 54.589844 -48.324219 54.753906 -48.652344 54.753906 -48.816406 C 54.753906 -48.984375 54.753906 -49.148438 54.589844 -49.148438 L 54.753906 -49.808594 C 55.085938 -50.300781 54.425781 -52.777344 53.929688 -52.445312 C 52.609375 -53.765625 53.765625 -51.125 41.5625 -38.921875 C 37.109375 -34.632812 43.375 -39.417969 31.832031 -29.851562 C 21.933594 -21.605469 22.925781 -23.253906 19.789062 -21.605469 C 17.480469 -20.449219 15.667969 -21.273438 14.679688 -23.585938 C 11.875 -29.851562 14.84375 -38.261719 16.988281 -44.695312 C 17.648438 -46.839844 18.308594 -49.476562 19.460938 -51.457031 C 19.957031 -52.117188 20.121094 -52.941406 20.121094 -53.269531 C 19.957031 -53.929688 22.101562 -55.25 22.101562 -56.570312 C 22.101562 -57.0625 22.265625 -57.558594 22.429688 -57.558594 C 23.089844 -57.558594 24.902344 -60.527344 25.398438 -62.507812 C 26.71875 -66.628906 34.46875 -76.03125 34.964844 -77.019531 C 37.933594 -81.804688 47.992188 -92.191406 55.578125 -96.480469 C 57.558594 -97.46875 63.992188 -101.921875 66.792969 -98.625 C 67.453125 -97.800781 68.609375 -94.832031 67.289062 -93.511719 C 67.125 -93.347656 54.589844 -80.976562 50.960938 -73.0625 C 49.476562 -69.929688 48.15625 -64.15625 51.785156 -61.847656 C 53.105469 -61.1875 52.609375 -65.96875 56.898438 -72.566406 C 61.683594 -80.152344 75.699219 -93.84375 80.8125 -96.976562 C 81.96875 -97.636719 82.296875 -98.128906 81.96875 -99.613281 Z M 50.46875 -94.667969 C 49.972656 -94.832031 49.476562 -94.171875 46.34375 -91.367188 C 42.386719 -87.90625 44.035156 -87.574219 42.714844 -87.246094 C 41.726562 -87.082031 39.746094 -84.113281 38.425781 -83.121094 C 36.941406 -82.296875 36.613281 -80.152344 34.800781 -78.667969 C 33.316406 -77.183594 34.140625 -76.691406 33.316406 -76.523438 C 32.324219 -76.359375 30.511719 -72.070312 29.6875 -71.90625 C 28.863281 -71.742188 29.191406 -70.421875 28.53125 -70.257812 C 27.871094 -70.09375 21.605469 -59.371094 21.769531 -58.714844 C 21.933594 -58.21875 19.957031 -57.230469 19.625 -55.085938 C 19.296875 -52.941406 18.308594 -53.601562 18.472656 -52.941406 C 18.636719 -52.28125 15.171875 -44.695312 14.511719 -42.878906 C 13.6875 -41.066406 14.019531 -41.230469 12.535156 -34.140625 C 11.050781 -27.378906 10.554688 -31.832031 14.019531 -43.707031 C 15.339844 -48.488281 17.648438 -52.28125 17.480469 -53.269531 C 17.152344 -54.09375 18.800781 -54.261719 18.964844 -55.578125 C 19.132812 -58.054688 21.273438 -62.011719 27.046875 -70.753906 C 32.820312 -79.660156 34.964844 -79.988281 33.808594 -80.484375 C 32.160156 -80.976562 35.292969 -80.648438 36.285156 -82.628906 C 36.777344 -83.617188 36.777344 -83.617188 36.117188 -83.121094 C 34.964844 -82.296875 35.292969 -82.957031 37.4375 -85.265625 C 42.878906 -91.367188 43.871094 -92.359375 45.023438 -92.191406 C 45.683594 -92.191406 45.847656 -92.359375 45.355469 -92.523438 C 44.695312 -92.6875 45.023438 -93.019531 46.34375 -94.171875 C 48.324219 -95.820312 48.984375 -95.988281 48.816406 -95.328125 C 48.488281 -94.667969 49.148438 -94.832031 50.136719 -95.988281 C 53.269531 -99.121094 51.125 -94.335938 50.46875 -94.667969 Z M 72.730469 -94.503906 C 72.566406 -94.667969 74.214844 -95.988281 74.546875 -95.820312 C 75.039062 -95.492188 72.898438 -93.675781 72.730469 -94.503906 Z M 41.5625 -88.894531 C 41.066406 -88.730469 39.417969 -86.421875 39.910156 -86.585938 C 40.570312 -86.75 42.054688 -89.058594 41.5625 -88.894531 Z M 61.023438 -80.152344 C 59.867188 -78.667969 58.21875 -77.515625 56.898438 -76.195312 C 55.746094 -75.039062 54.261719 -72.566406 53.601562 -72.402344 C 50.300781 -71.578125 60.691406 -82.460938 62.507812 -84.441406 C 67.289062 -90.214844 65.640625 -85.429688 61.023438 -80.152344 Z M 37.273438 -84.277344 C 37.4375 -83.945312 37.933594 -84.277344 38.59375 -85.101562 C 40.078125 -86.914062 37.109375 -84.605469 37.273438 -84.277344 Z M 33.316406 -28.039062 L 41.5625 -34.964844 C 42.222656 -35.128906 42.878906 -38.097656 53.105469 -47.992188 C 51.125 -43.375 44.199219 -38.097656 43.375 -35.953125 C 42.878906 -34.632812 39.085938 -31.335938 38.425781 -30.839844 C 37.933594 -30.347656 37.769531 -29.851562 37.273438 -29.523438 C 36.285156 -28.863281 35.789062 -29.027344 35.128906 -28.039062 C 34.304688 -26.71875 31.5 -24.738281 30.675781 -24.574219 C 28.039062 -24.410156 32.984375 -27.542969 33.316406 -28.039062 Z M 11.214844 -29.851562 C 11.050781 -30.347656 11.875 -30.511719 11.875 -30.347656 C 12.039062 -30.179688 11.378906 -29.191406 11.214844 -29.851562 Z M 11.214844 -29.851562 "/></g></g></g></svg>