<svg xmlns="http://www.w3.org/2000/svg" xmlns:xlink="http://www.w3.org/1999/xlink" width="670" zoomAndPan="magnify" viewBox="0 0 502.5 284.999983" height="380" preserveAspectRatio="xMidYMid meet" version="1.0"><defs><g/><clipPath id="29368bfa31"><path d="M 3 15 L 401 15 L 401 284.855469 L 3 284.855469 Z M 3 15 " clip-rule="nonzero"/></clipPath><clipPath id="83a0cb500e"><path d="M 87.527344 92 L 195 92 L 195 174 L 87.527344 174 Z M 87.527344 92 " clip-rule="nonzero"/></clipPath><clipPath id="10ae253218"><path d="M 0 0.140625 L 239 0.140625 L 239 281 L 0 281 Z M 0 0.140625 " clip-rule="nonzero"/></clipPath></defs><g clip-path="url(#29368bfa31)"><g fill="#737373" fill-opacity="1"><g transform="translate(66.09769, 319.882348)"><g><path d="M 247.496094 -294.996094 C 195.496094 -304.496094 138 -294.496094 87.5 -278.996094 C 81 -276.996094 69.5 -275.996094 64.5 -270.996094 C 59.5 -266.496094 62 -256.496094 65.5 -250.496094 C 70.5 -242.996094 74.5 -246.496094 78.5 -249.996094 C 103 -268.996094 204.496094 -287.496094 258.496094 -272.996094 C 281.496094 -266.996094 298.996094 -251.996094 299.496094 -238.496094 C 299.996094 -226.496094 281.996094 -192.5 265.496094 -174 C 241.996094 -147.5 194.996094 -114 145 -93.5 C 131 -88 104.5 -78 102.5 -78 C 102 -78 102.5 -80.5 104 -84 C 108 -92 108 -101 112.5 -109 C 116 -116.5 134.5 -144.5 138 -148 C 150 -161.5 219.996094 -167.5 237.496094 -162.5 C 246.496094 -160 235.496094 -175 219.996094 -178.5 C 214.996094 -180.5 209.996094 -181 204.996094 -181.5 C 161 -182.5 150.5 -163 189 -208.496094 C 208.496094 -231.996094 225.496094 -248.996094 225.996094 -250.996094 C 226.496094 -253.996094 225.496094 -253.996094 230.996094 -260.496094 C 236.496094 -266.996094 236.496094 -266.996094 231.996094 -270.996094 C 227.996094 -275.496094 221.996094 -275.496094 215.996094 -269.996094 C 210.496094 -265.996094 159 -207.996094 143.5 -189 C 132.5 -175.5 127 -167.5 119.5 -165 C -63 -109.5 -1.5 -32 73.5 -49.5 C 82.5 -51.5 135.5 -68 158.5 -81 C 171 -85.5 209.496094 -110 214.996094 -110.5 C 219.996094 -110.5 231.996094 -119.5 230.496094 -122 C 229.996094 -123 230.496094 -123.5 231.996094 -122.5 C 233.496094 -122 234.496094 -122.5 233.996094 -123 C 232.496094 -125.5 260.996094 -152 236.496094 -131.5 C 212.996094 -111 177.5 -95 162 -86.5 C 139.5 -78.5 59.5 -49 53 -57 C 49 -61.5 86 -66 95 -70 C 110.5 -76.5 129 -80 129 -81.5 C 129 -83 164.5 -94.5 164.5 -97 C 164.5 -97.5 165 -98 166.5 -98.5 C 173.5 -98.5 227.996094 -132 241.996094 -144.5 C 278.996094 -179 257.996094 -157.5 260.496094 -155.5 C 260.996094 -155 267.496094 -163 267.996094 -164 C 268.996094 -165.5 269.996094 -168.5 271.496094 -169.5 C 275.496094 -173.5 271.996094 -167.5 274.496094 -167 C 275.996094 -167 277.496094 -171 279.996094 -172 C 283.496094 -173 282.996094 -171 286.496094 -177 C 287.996094 -180 290.996094 -182.5 294.496094 -183.5 C 293.996094 -182 293.996094 -181 293.496094 -180 C 292.996094 -179 292.496094 -178.5 292.496094 -178 C 292.496094 -178 291.996094 -177.5 291.996094 -177.5 L 292.996094 -177.5 C 293.496094 -177.5 294.996094 -178.5 296.496094 -180.5 C 296.496094 -180.5 296.496094 -181 296.996094 -181 C 309.996094 -198.996094 333.996094 -278.496094 247.496094 -294.996094 Z M 294.996094 -262.496094 C 288.496094 -270.496094 277.496094 -275.496094 251.996094 -282.496094 C 240.496094 -285.496094 232.996094 -286.496094 209.996094 -287.496094 C 187.5 -287.996094 187 -290.496094 209.496094 -290.996094 C 255.996094 -292.996094 180.5 -294.496094 183 -294.496094 C 188 -294.496094 210.996094 -296.496094 230.996094 -293.996094 C 230.996094 -293.996094 258.996094 -289.996094 253.496094 -288.996094 C 249.996094 -288.996094 276.996094 -279.996094 284.496094 -274.496094 C 298.496094 -264.996094 298.496094 -258.496094 294.996094 -262.496094 Z M 230.996094 -290.496094 C 230.996094 -290.496094 234.996094 -289.996094 237.496094 -290.496094 C 240.996094 -291.996094 226.496094 -290.996094 230.996094 -290.496094 Z M 244.496094 -289.996094 C 242.496094 -289.996094 242.496094 -289.496094 243.496094 -289.496094 C 246.496094 -288.496094 248.496094 -290.496094 244.496094 -289.996094 Z M 182 -178.5 C 191.5 -179 187.5 -177.5 178 -178 C 175.5 -178 177.5 -178.5 182 -178.5 Z M 168 -171.5 C 186 -180 208.496094 -176.5 217.496094 -177 C 226.496094 -175 231.996094 -172.5 222.496094 -173.5 C 211.496094 -174.5 205.496094 -175.5 204.496094 -172.5 C 202.496094 -167.5 160 -168 168 -171.5 Z M 285.496094 -170 C 282.496094 -168 284.996094 -165.5 287.496094 -168.5 C 289.496094 -171 288.496094 -172 285.496094 -170 Z M 137.5 -165.5 C 136.5 -163.5 135.5 -162.5 135 -163 C 133.5 -164.5 141.5 -173 137.5 -165.5 Z M 230.996094 -168 C 232.496094 -168 233.496094 -167.5 232.996094 -167 C 231.996094 -166 226.496094 -167.5 230.996094 -168 Z M 280.996094 -164 C 279.996094 -164.5 277.496094 -164 275.996094 -162.5 C 271.996094 -159.5 258.996094 -144.5 255.996094 -144.5 C 252.996094 -144 258.496094 -149 256.496094 -149 C 254.996094 -149 247.996094 -141 248.996094 -140 C 251.496094 -137.5 273.496094 -153 271.996094 -155.5 C 270.496094 -157.5 277.496094 -156.5 276.996094 -159.5 C 276.996094 -163 283.496094 -162 280.996094 -164 Z M 15 -109.5 C 16 -112 29 -122.5 39 -128.5 C 60 -141 67.5 -142.5 80 -148.5 C 80 -148.5 115 -164 116.5 -160 C 118 -156.5 106 -153.5 80.5 -144 C 24 -122.5 13 -104.5 15 -109.5 Z M 100 -110 C 102.5 -116.5 124 -155 124.5 -145 C 124.5 -143.5 120 -140.5 120 -138 C 120 -137 119 -135.5 118 -135 C 115 -134 111.5 -123 109.5 -121.5 C 109 -121 107.5 -118.5 106 -116 C 103.5 -110 98.5 -105 100 -110 Z M 85 -78.5 C 86 -77.5 87 -78 91 -78 C 101 -77.5 78 -67 51 -67 C 29.5 -66.5 0 -71 11.5 -89 C 23 -109 98.5 -143 104 -139 C 106.5 -137.5 75.5 -83.5 85 -78.5 Z M 246.496094 -133.5 C 240.996094 -128.5 240.996094 -127 245.996094 -129 C 249.496094 -130.5 245.496094 -133 247.996094 -133 C 253.496094 -133 257.496094 -144.5 246.496094 -133.5 Z M 117.5 -124.5 C 113 -119.5 115 -118.5 113 -118.5 C 111 -118.5 119 -131.5 120 -129.5 C 120 -129 119 -126.5 117.5 -124.5 Z M 107 -107 C 103.5 -103.5 106 -112 108 -110 C 108.5 -109.5 108 -108.5 107 -107 Z M 141.5 -77.5 C 143 -78.5 146.5 -79 149.5 -79 C 156 -79.5 155 -79.5 142 -73.5 C 134 -69.5 128 -68 119 -67 C 98 -64.5 135 -73 141.5 -77.5 Z M 44.5 -59.5 C 33 -59 46 -54 22.5 -60.5 C 16.5 -62 14 -64 14 -66.5 C 14 -68 17.5 -67.5 29.5 -64 C 32.5 -63.5 38 -62.5 41 -62.5 C 46 -62.5 53.5 -59.5 44.5 -59.5 Z M 44 -58 C 45.5 -58 46.5 -57.5 46.5 -56.5 C 46.5 -54 38 -57.5 44 -58 Z M 44 -58 "/></g></g></g></g><g clip-path="url(#83a0cb500e)"><path fill="#ff3131" d="M 181.6875 92.050781 C 176.472656 91.699219 170.8125 94.179688 166.304688 96.574219 C 161.707031 98.96875 157.375 102.25 153.839844 106.152344 C 148.710938 111.5625 144.113281 119.011719 142.699219 126.726562 C 137.570312 122.203125 132.175781 118.125 125.988281 115.285156 C 116.351562 110.851562 105.121094 109.523438 95.21875 114.046875 C 93.007812 115.019531 90.710938 116.441406 89.296875 118.480469 C 87.617188 120.875 87.527344 123.710938 87.96875 126.550781 C 88.675781 131.78125 91.242188 136.570312 94.425781 140.738281 C 100.523438 148.808594 109.632812 154.75 118.382812 159.628906 C 126.785156 164.328125 135.714844 167.964844 145.175781 169.472656 C 145.4375 170.800781 146.234375 172.042969 147.296875 172.664062 C 149.59375 174.082031 151.980469 173.105469 153.484375 171.15625 C 161.355469 161.3125 169.222656 151.46875 177.179688 141.535156 C 183.632812 133.464844 191.855469 124.953125 194.242188 114.578125 C 196.277344 105.175781 192.828125 92.761719 181.6875 92.050781 Z M 121.214844 123.179688 C 117.410156 122.027344 113.519531 121.050781 109.542969 120.253906 C 113.609375 120.429688 117.675781 121.496094 121.300781 123.089844 C 121.300781 123.089844 121.300781 123.179688 121.214844 123.179688 Z M 179.832031 101.1875 C 181.953125 100.921875 183.367188 101.542969 184.253906 102.78125 C 181.511719 105.265625 178.859375 107.835938 176.296875 110.496094 C 175.855469 109.789062 175.234375 109.257812 174.527344 108.902344 C 173.464844 106.152344 169.488281 104.734375 167.101562 107.128906 C 163.828125 110.320312 160.824219 113.691406 157.992188 117.328125 C 157.550781 117.148438 157.109375 117.058594 156.667969 116.972656 C 157.375 115.996094 158.082031 115.109375 158.789062 114.222656 C 163.917969 108.015625 171.785156 102.25 179.832031 101.1875 Z M 106.449219 140.382812 C 103.796875 137.988281 101.320312 135.328125 99.550781 132.226562 C 101.144531 134.175781 103.265625 135.949219 105.5625 137.546875 C 105.917969 138.078125 106.359375 138.519531 106.980469 138.875 C 108.660156 139.851562 110.339844 140.738281 112.019531 141.625 C 112.726562 142.070312 113.34375 142.421875 113.964844 142.867188 C 116.261719 144.375 118.5625 145.96875 120.859375 147.476562 C 120.328125 148.1875 119.976562 149.074219 119.800781 149.960938 C 115.023438 147.210938 110.515625 144.019531 106.449219 140.382812 Z M 150.035156 160.867188 C 148.355469 160.691406 146.589844 160.425781 144.910156 160.160156 C 145.527344 159.628906 146.058594 158.917969 146.324219 158.121094 C 148.179688 158.472656 150.035156 158.652344 151.894531 158.472656 C 151.273438 159.273438 150.65625 160.070312 150.035156 160.867188 Z M 168.78125 137.457031 C 166.304688 140.5625 163.828125 143.664062 161.355469 146.769531 C 168.160156 137.367188 175.234375 128.234375 182.574219 119.277344 C 178.949219 125.839844 173.289062 131.691406 168.78125 137.457031 Z M 168.78125 137.457031 " fill-opacity="1" fill-rule="nonzero"/></g><g clip-path="url(#10ae253218)"><g fill="#737373" fill-opacity="1"><g transform="translate(-10.55549, 322.764769)"><g><path d="M 248.496094 -301.996094 C 246.996094 -304.996094 244.996094 -308.496094 242.496094 -310.496094 C 235.496094 -316.996094 228.496094 -308.496094 218.496094 -298.996094 C 218.496094 -299.496094 214.496094 -309.996094 197.996094 -313.996094 C 135.5 -328.496094 -3.5 -157.5 30 -65.5 C 32.5 -58.5 37 -51.5 43.5 -48.5 C 57 -42 71.5 -49 81.5 -58 C 107 -79.5 149 -116.5 165 -146 C 165.5 -146.5 166 -147.5 166 -148 C 166 -148.5 166 -149 165.5 -149 L 166 -151 C 167 -152.5 165 -160 163.5 -159 C 159.5 -163 163 -155 126 -118 C 112.5 -105 131.5 -119.5 96.5 -90.5 C 66.5 -65.5 69.5 -70.5 60 -65.5 C 53 -62 47.5 -64.5 44.5 -71.5 C 36 -90.5 45 -116 51.5 -135.5 C 53.5 -142 55.5 -150 59 -156 C 60.5 -158 61 -160.5 61 -161.5 C 60.5 -163.5 67 -167.5 67 -171.5 C 67 -173 67.5 -174.5 68 -174.5 C 70 -174.5 75.5 -183.5 77 -189.5 C 81 -201.996094 104.5 -230.496094 106 -233.496094 C 115 -247.996094 145.5 -279.496094 168.5 -292.496094 C 174.5 -295.496094 193.996094 -308.996094 202.496094 -298.996094 C 204.496094 -296.496094 207.996094 -287.496094 203.996094 -283.496094 C 203.496094 -282.996094 165.5 -245.496094 154.5 -221.496094 C 150 -211.996094 146 -194.496094 157 -187.5 C 161 -185.5 159.5 -199.996094 172.5 -219.996094 C 187 -242.996094 229.496094 -284.496094 244.996094 -293.996094 C 248.496094 -295.996094 249.496094 -297.496094 248.496094 -301.996094 Z M 153 -286.996094 C 151.5 -287.496094 150 -285.496094 140.5 -276.996094 C 128.5 -266.496094 133.5 -265.496094 129.5 -264.496094 C 126.5 -263.996094 120.5 -254.996094 116.5 -251.996094 C 112 -249.496094 111 -242.996094 105.5 -238.496094 C 101 -233.996094 103.5 -232.496094 101 -231.996094 C 98 -231.496094 92.5 -218.496094 90 -217.996094 C 87.5 -217.496094 88.5 -213.496094 86.5 -212.996094 C 84.5 -212.496094 65.5 -180 66 -178 C 66.5 -176.5 60.5 -173.5 59.5 -167 C 58.5 -160.5 55.5 -162.5 56 -160.5 C 56.5 -158.5 46 -135.5 44 -130 C 41.5 -124.5 42.5 -125 38 -103.5 C 33.5 -83 32 -96.5 42.5 -132.5 C 46.5 -147 53.5 -158.5 53 -161.5 C 52 -164 57 -164.5 57.5 -168.5 C 58 -176 64.5 -188 82 -214.496094 C 99.5 -241.496094 106 -242.496094 102.5 -243.996094 C 97.5 -245.496094 107 -244.496094 110 -250.496094 C 111.5 -253.496094 111.5 -253.496094 109.5 -251.996094 C 106 -249.496094 107 -251.496094 113.5 -258.496094 C 130 -276.996094 133 -279.996094 136.5 -279.496094 C 138.5 -279.496094 139 -279.996094 137.5 -280.496094 C 135.5 -280.996094 136.5 -281.996094 140.5 -285.496094 C 146.5 -290.496094 148.5 -290.996094 148 -288.996094 C 147 -286.996094 149 -287.496094 152 -290.996094 C 161.5 -300.496094 155 -285.996094 153 -286.996094 Z M 220.496094 -286.496094 C 219.996094 -286.996094 224.996094 -290.996094 225.996094 -290.496094 C 227.496094 -289.496094 220.996094 -283.996094 220.496094 -286.496094 Z M 126 -269.496094 C 124.5 -268.996094 119.5 -261.996094 121 -262.496094 C 123 -262.996094 127.5 -269.996094 126 -269.496094 Z M 185 -242.996094 C 181.5 -238.496094 176.5 -234.996094 172.5 -230.996094 C 169 -227.496094 164.5 -219.996094 162.5 -219.496094 C 152.5 -216.996094 184 -249.996094 189.5 -255.996094 C 203.996094 -273.496094 198.996094 -258.996094 185 -242.996094 Z M 113 -255.496094 C 113.5 -254.496094 115 -255.496094 117 -257.996094 C 121.5 -263.496094 112.5 -256.496094 113 -255.496094 Z M 101 -85 L 126 -106 C 128 -106.5 130 -115.5 161 -145.5 C 155 -131.5 134 -115.5 131.5 -109 C 130 -105 118.5 -95 116.5 -93.5 C 115 -92 114.5 -90.5 113 -89.5 C 110 -87.5 108.5 -88 106.5 -85 C 104 -81 95.5 -75 93 -74.5 C 85 -74 100 -83.5 101 -85 Z M 34 -90.5 C 33.5 -92 36 -92.5 36 -92 C 36.5 -91.5 34.5 -88.5 34 -90.5 Z M 34 -90.5 "/></g></g></g></g></svg>